# xmcd
#
# Track frame offsets:
#	150
#	17675
#	34375
#	48150
#	66950
#	86098
#	104730
#	120692
#	136648
#	152758
#	172243
#	188397
#	207508
#	222345
#	244290
#	257853
#	274958
#
# Disc length: 3888 seconds
# Revision: 0
# Processed by: cddbd v1.5.2PL0 Copyright (c) Steve Scherf et al.
# Submitted via: dBpowerAMP V12.0
#
DISCID=020f2e11
DTITLE=Dado Jaeger and Mauro Marques - Rumos
DYEAR=2010
DGENRE=Brazil
TTITLE0=Quem me Dera (Dado Jaeger)
TTITLE1=Pelas Carreiras do Mundo (Dado Jaeger)
TTITLE2=Poesia (Florisnei Thomaz)
TTITLE3=A Um Velho Poeta (Mauro Marques)
TTITLE4=O Preço das Paixões (Mauro Marques)
TTITLE5=Vaqueano (Léo Almeida)
TTITLE6=Canção Desesperada (Dado Jaeger)
TTITLE7=O Grande Carrossel (Dado Jaeger)
TTITLE8=Grande Atriz (Maria Helena Anversa)
TTITLE9=Navegando (Mauro Marques)
TTITLE10=Tão Longe de Mim (Mauro Marques)
TTITLE11=Galopes da Noite (Flávio Hanssen)
TTITLE12=Garimpando (Dado Jaeger)
TTITLE13=Janelas Fechadas (Dado Jaeger)
TTITLE14=Pra Me Enfeitiçar (Victor Hugo)
TTITLE15=Milongueando Uma Paixão (Mauro Marques)
TTITLE16=Rumos (Mauro Marques)
EXTD=
EXTT0=
EXTT1=
EXTT2=
EXTT3=
EXTT4=
EXTT5=
EXTT6=
EXTT7=
EXTT8=
EXTT9=
EXTT10=
EXTT11=
EXTT12=
EXTT13=
EXTT14=
EXTT15=
EXTT16=
PLAYORDER=
